<mxfile host="app.diagrams.net" modified="2024-04-27T06:55:53.302Z" agent="Mozilla/5.0 (Windows NT 10.0; Win64; x64) AppleWebKit/537.36 (KHTML, like Gecko) Chrome/124.0.0.0 Safari/537.36 Edg/124.0.0.0" version="24.3.1" etag="_cX5Q_i4pRBJ1JyD7OGC" type="github">
  <diagram name="Page-1" id="cWX5lvuiUG4T3O2avN8r">
    <mxGraphModel>
      <root>
        <mxCell id="0" />
        <mxCell id="1" parent="0" />
      </root>
    </mxGraphModel>
  </diagram>
</mxfile>
